<svg width="417" height="134" viewBox="0 0 417 134" fill="none" xmlns="http://www.w3.org/2000/svg">
<g clip-path="url(#clip0_33_2)">
<path d="M134 67C134 104.003 104.003 134 67 134C29.9969 134 0 104.003 0 67C0 29.9969 29.9969 0 67 0C104.003 0 134 29.9969 134 67Z" fill="white"/>
<path d="M107.75 66.5H97.52C95.7172 66.4961 93.9628 67.0829 92.5251 68.1705C91.0874 69.2581 90.0455 70.7867 89.5588 72.5225L79.865 107.007C79.8025 107.222 79.6723 107.41 79.4937 107.544C79.3152 107.678 79.0981 107.75 78.875 107.75C78.6519 107.75 78.4348 107.678 78.2563 107.544C78.0777 107.41 77.9475 107.222 77.885 107.007L55.115 25.9925C55.0525 25.7783 54.9223 25.5901 54.7437 25.4562C54.5652 25.3224 54.3481 25.25 54.125 25.25C53.9019 25.25 53.6848 25.3224 53.5063 25.4562C53.3277 25.5901 53.1975 25.7783 53.135 25.9925L43.4412 60.4775C42.9564 62.2065 41.9207 63.7301 40.4913 64.8171C39.0619 65.904 37.3169 66.4949 35.5212 66.5H25.25" stroke="#111827" stroke-width="4" stroke-linecap="round" stroke-linejoin="round"/>
</g>
<path d="M168.8 101.5V32.38H201.632C206.752 32.38 211.136 33.276 214.784 35.068C218.496 36.86 221.344 39.356 223.328 42.556C225.376 45.756 226.4 49.5 226.4 53.788C226.4 58.076 225.376 61.852 223.328 65.116C221.28 68.38 218.4 70.94 214.688 72.796C211.04 74.588 206.688 75.484 201.632 75.484H180.512V64.156H200.864C204.256 64.156 206.88 63.228 208.736 61.372C210.656 59.452 211.616 56.956 211.616 53.884C211.616 50.812 210.656 48.348 208.736 46.492C206.88 44.636 204.256 43.708 200.864 43.708H183.584V101.5H168.8ZM248.788 102.46C245.332 102.46 242.356 101.724 239.859 100.252C237.428 98.716 235.572 96.7 234.292 94.204C233.012 91.644 232.372 88.796 232.372 85.66V52.54H246.772V82.876C246.772 85.564 247.444 87.58 248.788 88.924C250.132 90.268 252.02 90.94 254.452 90.94C256.628 90.94 258.548 90.428 260.212 89.404C261.876 88.38 263.188 86.972 264.148 85.18C265.172 83.324 265.684 81.212 265.684 78.844L266.932 90.652C265.332 94.172 262.996 97.02 259.924 99.196C256.852 101.372 253.14 102.46 248.788 102.46ZM265.972 101.5V89.98H265.684V52.54H280.083V101.5H265.972ZM291.635 101.5V32.38H306.035V101.5H291.635ZM337.286 102.46C330.118 102.46 324.422 101.02 320.198 98.14C315.974 95.26 313.67 91.292 313.286 86.236H326.15C326.47 88.412 327.558 90.076 329.414 91.228C331.334 92.316 333.958 92.86 337.286 92.86C340.294 92.86 342.47 92.444 343.814 91.612C345.222 90.716 345.926 89.468 345.926 87.868C345.926 86.652 345.51 85.724 344.678 85.084C343.91 84.38 342.47 83.804 340.358 83.356L332.486 81.724C326.662 80.508 322.374 78.684 319.622 76.252C316.87 73.756 315.494 70.556 315.494 66.652C315.494 61.916 317.318 58.236 320.966 55.612C324.614 52.924 329.702 51.58 336.23 51.58C342.694 51.58 347.846 52.892 351.686 55.516C355.526 58.076 357.638 61.66 358.022 66.268H345.158C344.902 64.604 344.006 63.356 342.47 62.524C340.934 61.628 338.758 61.18 335.942 61.18C333.382 61.18 331.462 61.564 330.182 62.332C328.966 63.036 328.358 64.06 328.358 65.404C328.358 66.556 328.87 67.484 329.894 68.188C330.918 68.828 332.614 69.404 334.982 69.916L343.814 71.74C348.742 72.764 352.454 74.684 354.95 77.5C357.51 80.252 358.79 83.516 358.79 87.292C358.79 92.092 356.902 95.836 353.126 98.524C349.414 101.148 344.134 102.46 337.286 102.46ZM390.613 102.46C385.173 102.46 380.437 101.404 376.405 99.292C372.373 97.116 369.237 94.108 366.997 90.268C364.821 86.428 363.733 82.012 363.733 77.02C363.733 71.964 364.821 67.548 366.997 63.772C369.237 59.932 372.341 56.956 376.309 54.844C380.277 52.668 384.885 51.58 390.133 51.58C395.189 51.58 399.573 52.604 403.285 54.652C406.997 56.7 409.877 59.548 411.925 63.196C413.973 66.844 414.997 71.132 414.997 76.06C414.997 77.084 414.965 78.044 414.901 78.94C414.837 79.772 414.741 80.572 414.613 81.34H372.181V71.836H402.997L400.501 73.564C400.501 69.596 399.541 66.684 397.621 64.828C395.765 62.908 393.205 61.948 389.941 61.948C386.165 61.948 383.221 63.228 381.109 65.788C379.061 68.348 378.037 72.188 378.037 77.308C378.037 82.3 379.061 86.012 381.109 88.444C383.221 90.876 386.357 92.092 390.517 92.092C392.821 92.092 394.805 91.708 396.469 90.94C398.133 90.172 399.381 88.924 400.213 87.196H413.749C412.149 91.932 409.397 95.676 405.493 98.428C401.653 101.116 396.693 102.46 390.613 102.46Z" fill="white"/>
<defs>
<clipPath id="clip0_33_2">
<rect width="134" height="134" fill="white"/>
</clipPath>
</defs>
</svg>
