<svg width="721" height="134" viewBox="0 0 721 134" fill="none" xmlns="http://www.w3.org/2000/svg">
<g clip-path="url(#clip0_30_12)">
<path d="M134 67C134 104.003 104.003 134 67 134C29.9969 134 0 104.003 0 67C0 29.9969 29.9969 0 67 0C104.003 0 134 29.9969 134 67Z" fill="#111827"/>
<path d="M107.75 66.5H97.52C95.7172 66.4961 93.9628 67.0829 92.5251 68.1705C91.0874 69.2581 90.0455 70.7867 89.5588 72.5225L79.865 107.007C79.8025 107.222 79.6723 107.41 79.4937 107.544C79.3152 107.678 79.0981 107.75 78.875 107.75C78.6519 107.75 78.4348 107.678 78.2563 107.544C78.0777 107.41 77.9475 107.222 77.885 107.007L55.115 25.9925C55.0525 25.7783 54.9223 25.5901 54.7437 25.4562C54.5652 25.3224 54.3481 25.25 54.125 25.25C53.9019 25.25 53.6848 25.3224 53.5063 25.4562C53.3277 25.5901 53.1975 25.7783 53.135 25.9925L43.4412 60.4775C42.9564 62.2065 41.9207 63.7301 40.4913 64.8171C39.0619 65.904 37.3169 66.4949 35.5212 66.5H25.25" stroke="white" stroke-width="4" stroke-linecap="round" stroke-linejoin="round"/>
</g>
<path d="M168.736 65.5V19.42H188.256C191.584 19.42 194.421 19.9747 196.768 21.084C199.115 22.1933 200.907 23.772 202.144 25.82C203.424 27.868 204.064 30.3 204.064 33.116C204.064 35.9747 203.424 38.4493 202.144 40.54C200.907 42.588 199.093 44.188 196.704 45.34C194.357 46.492 191.541 47.068 188.256 47.068H173.92V41.436H187.936C190.965 41.436 193.269 40.7107 194.848 39.26C196.469 37.8093 197.28 35.7827 197.28 33.18C197.28 30.5347 196.491 28.508 194.912 27.1C193.333 25.692 191.008 24.988 187.936 24.988H175.52V65.5H168.736ZM220.484 66.14C218.308 66.14 216.388 65.692 214.724 64.796C213.06 63.8573 211.758 62.5773 210.82 60.956C209.924 59.3347 209.476 57.4787 209.476 55.388V32.86H216.132V53.852C216.132 56.1133 216.686 57.7987 217.796 58.908C218.905 60.0173 220.484 60.572 222.532 60.572C224.366 60.572 225.988 60.1453 227.396 59.292C228.846 58.4387 229.977 57.2653 230.788 55.772C231.641 54.236 232.068 52.4653 232.068 50.46L232.9 58.268C231.833 60.6573 230.19 62.5773 227.972 64.028C225.796 65.436 223.3 66.14 220.484 66.14ZM232.324 65.5V57.82H232.068V32.86H238.66V65.5H232.324ZM247.985 65.5V19.42H254.641V65.5H247.985ZM275.76 66.14C271.494 66.14 268.102 65.2013 265.585 63.324C263.067 61.4467 261.638 58.8013 261.297 55.388H267.441C267.739 57.2653 268.593 58.716 270.001 59.74C271.451 60.7213 273.414 61.212 275.889 61.212C278.065 61.212 279.729 60.828 280.881 60.06C282.033 59.292 282.609 58.204 282.609 56.796C282.609 55.772 282.267 54.9187 281.585 54.236C280.945 53.5107 279.665 52.9133 277.745 52.444L272.497 51.228C269.211 50.4173 266.758 49.2227 265.137 47.644C263.558 46.0227 262.769 44.0387 262.769 41.692C262.769 38.748 263.857 36.444 266.033 34.78C268.251 33.0733 271.281 32.22 275.121 32.22C278.918 32.22 281.969 33.0733 284.273 34.78C286.619 36.4867 287.942 38.876 288.241 41.948H282.097C281.841 40.412 281.094 39.2387 279.857 38.428C278.662 37.5747 277.019 37.148 274.929 37.148C272.966 37.148 271.451 37.5107 270.385 38.236C269.361 38.9187 268.849 39.8787 268.849 41.116C268.849 42.14 269.233 42.9933 270.001 43.676C270.811 44.3587 272.134 44.9347 273.969 45.404L279.345 46.748C282.459 47.516 284.806 48.7747 286.385 50.524C287.963 52.2307 288.753 54.3 288.753 56.732C288.753 59.676 287.601 61.98 285.297 63.644C283.035 65.308 279.857 66.14 275.76 66.14ZM310.127 66.14C306.842 66.14 303.94 65.4147 301.423 63.964C298.948 62.5133 297.007 60.508 295.599 57.948C294.191 55.388 293.487 52.444 293.487 49.116C293.487 45.7453 294.17 42.8013 295.535 40.284C296.943 37.724 298.906 35.74 301.423 34.332C303.94 32.924 306.82 32.22 310.063 32.22C313.22 32.22 315.951 32.9027 318.255 34.268C320.602 35.5907 322.394 37.4467 323.631 39.836C324.911 42.2253 325.551 45.0627 325.551 48.348C325.551 48.86 325.53 49.3507 325.487 49.82C325.487 50.2467 325.444 50.6947 325.359 51.164H297.967V46.172H320.687L319.023 48.156C319.023 44.6573 318.234 41.9907 316.655 40.156C315.076 38.3213 312.879 37.404 310.063 37.404C307.034 37.404 304.623 38.4493 302.831 40.54C301.082 42.588 300.207 45.4467 300.207 49.116C300.207 52.828 301.082 55.7293 302.831 57.82C304.623 59.9107 307.098 60.956 310.255 60.956C312.175 60.956 313.839 60.572 315.247 59.804C316.655 58.9933 317.7 57.82 318.383 56.284H324.655C323.588 59.356 321.775 61.7667 319.215 63.516C316.698 65.2653 313.668 66.14 310.127 66.14Z" fill="#111827"/>
<path d="M179.64 120.9C177.667 120.9 175.84 120.54 174.16 119.82C172.507 119.073 171.067 118.047 169.84 116.74C168.613 115.407 167.667 113.847 167 112.06C166.333 110.247 166 108.26 166 106.1C166 103.94 166.333 101.967 167 100.18C167.667 98.3667 168.6 96.8067 169.8 95.5C171.027 94.1667 172.467 93.14 174.12 92.42C175.8 91.6733 177.627 91.3 179.6 91.3C181.76 91.3 183.693 91.74 185.4 92.62C187.133 93.5 188.547 94.74 189.64 96.34C190.76 97.94 191.453 99.8067 191.72 101.94H188.44C188.12 99.5667 187.173 97.7 185.6 96.34C184.053 94.9533 182.067 94.26 179.64 94.26C177.587 94.26 175.787 94.7667 174.24 95.78C172.693 96.7667 171.493 98.1533 170.64 99.94C169.787 101.7 169.36 103.753 169.36 106.1C169.36 108.447 169.787 110.513 170.64 112.3C171.493 114.06 172.693 115.447 174.24 116.46C175.787 117.447 177.573 117.94 179.6 117.94C182.08 117.94 184.107 117.247 185.68 115.86C187.28 114.473 188.227 112.607 188.52 110.26H191.8C191.533 112.393 190.84 114.26 189.72 115.86C188.627 117.46 187.213 118.7 185.48 119.58C183.773 120.46 181.827 120.9 179.64 120.9ZM196.848 120.5V91.7H200.048V120.5H196.848ZM211.448 120.5V107.14C211.448 105.593 211.062 104.433 210.288 103.66C209.515 102.887 208.368 102.5 206.848 102.5C205.515 102.5 204.328 102.793 203.288 103.38C202.275 103.967 201.475 104.78 200.888 105.82C200.328 106.86 200.048 108.073 200.048 109.46L199.528 104.62C200.222 103.1 201.275 101.9 202.688 101.02C204.128 100.14 205.755 99.7 207.568 99.7C209.702 99.7 211.408 100.313 212.688 101.54C213.995 102.74 214.648 104.327 214.648 106.3V120.5H211.448ZM229.154 120.9C227.207 120.9 225.487 120.447 223.994 119.54C222.5 118.607 221.327 117.34 220.474 115.74C219.62 114.14 219.194 112.3 219.194 110.22C219.194 108.14 219.607 106.313 220.434 104.74C221.287 103.14 222.474 101.9 223.994 101.02C225.514 100.14 227.26 99.7 229.234 99.7C231.127 99.7 232.767 100.113 234.154 100.94C235.567 101.767 236.647 102.927 237.394 104.42C238.167 105.913 238.554 107.673 238.554 109.7C238.554 109.967 238.54 110.22 238.514 110.46C238.514 110.7 238.487 110.967 238.434 111.26H221.594V108.58H236.474L235.434 110.06C235.434 107.607 234.887 105.727 233.794 104.42C232.727 103.087 231.207 102.42 229.234 102.42C227.207 102.42 225.567 103.127 224.314 104.54C223.087 105.927 222.474 107.807 222.474 110.18C222.474 112.607 223.087 114.553 224.314 116.02C225.567 117.46 227.234 118.18 229.314 118.18C230.62 118.18 231.767 117.9 232.754 117.34C233.74 116.753 234.46 115.927 234.914 114.86H237.954C237.287 116.727 236.167 118.207 234.594 119.3C233.047 120.367 231.234 120.9 229.154 120.9ZM251.452 120.9C249.585 120.9 247.919 120.447 246.452 119.54C245.012 118.607 243.865 117.34 243.012 115.74C242.185 114.113 241.772 112.273 241.772 110.22C241.772 108.167 242.185 106.353 243.012 104.78C243.865 103.207 245.012 101.967 246.452 101.06C247.919 100.153 249.572 99.7 251.412 99.7C252.932 99.7 254.292 99.9933 255.492 100.58C256.719 101.167 257.719 102.007 258.492 103.1C259.292 104.167 259.799 105.42 260.012 106.86H257.052C256.785 105.553 256.172 104.487 255.212 103.66C254.252 102.833 253.012 102.42 251.492 102.42C250.185 102.42 249.052 102.74 248.092 103.38C247.132 104.02 246.385 104.927 245.852 106.1C245.319 107.273 245.052 108.647 245.052 110.22C245.052 111.793 245.319 113.18 245.852 114.38C246.385 115.58 247.132 116.513 248.092 117.18C249.079 117.847 250.225 118.18 251.532 118.18C252.999 118.18 254.225 117.78 255.212 116.98C256.199 116.153 256.825 115.087 257.092 113.78H260.052C259.812 115.193 259.279 116.447 258.452 117.54C257.652 118.607 256.652 119.433 255.452 120.02C254.252 120.607 252.919 120.9 251.452 120.9ZM264.7 120.5V90.9H267.9V120.5H264.7ZM278.02 120.5L267.18 109.9L277.62 100.1H282.02L270.3 110.82L270.5 108.94L282.42 120.5H278.02ZM295.874 128.7L300.434 118.1L301.154 116.98L307.834 100.1H311.114L299.274 128.7H295.874ZM300.794 120.7L291.634 100.1H295.154L303.034 118.54L300.794 120.7ZM323.024 120.9C321.024 120.9 319.264 120.433 317.744 119.5C316.224 118.567 315.037 117.3 314.184 115.7C313.357 114.073 312.944 112.247 312.944 110.22C312.944 108.167 313.37 106.353 314.224 104.78C315.077 103.207 316.25 101.967 317.744 101.06C319.264 100.153 321.024 99.7 323.024 99.7C325.05 99.7 326.81 100.153 328.304 101.06C329.824 101.967 330.997 103.207 331.824 104.78C332.677 106.353 333.104 108.167 333.104 110.22C333.104 112.247 332.677 114.073 331.824 115.7C330.997 117.3 329.824 118.567 328.304 119.5C326.81 120.433 325.05 120.9 323.024 120.9ZM323.024 118.18C324.41 118.18 325.61 117.847 326.624 117.18C327.637 116.487 328.424 115.54 328.984 114.34C329.544 113.14 329.824 111.753 329.824 110.18C329.824 107.833 329.197 105.953 327.944 104.54C326.717 103.127 325.077 102.42 323.024 102.42C320.997 102.42 319.357 103.127 318.104 104.54C316.85 105.953 316.224 107.833 316.224 110.18C316.224 111.753 316.504 113.14 317.064 114.34C317.624 115.54 318.41 116.487 319.424 117.18C320.464 117.847 321.664 118.18 323.024 118.18ZM344.543 120.9C343.21 120.9 342.023 120.633 340.983 120.1C339.943 119.54 339.13 118.767 338.543 117.78C337.956 116.767 337.663 115.607 337.663 114.3V100.1H340.863V113.46C340.863 115.007 341.236 116.167 341.983 116.94C342.756 117.713 343.85 118.1 345.263 118.1C346.543 118.1 347.676 117.807 348.663 117.22C349.65 116.633 350.423 115.82 350.983 114.78C351.57 113.713 351.863 112.5 351.863 111.14L352.383 115.98C351.716 117.5 350.676 118.7 349.263 119.58C347.85 120.46 346.276 120.9 344.543 120.9ZM352.063 120.5V115.7H351.863V100.1H355.063V120.5H352.063ZM361.458 120.5V100.1H364.458V105.3H364.658V120.5H361.458ZM364.658 109.86L364.138 105.02C364.618 103.287 365.471 101.967 366.698 101.06C367.924 100.153 369.338 99.7 370.938 99.7C371.604 99.7 372.058 99.7533 372.298 99.86V102.94C372.164 102.887 371.978 102.86 371.738 102.86C371.498 102.833 371.204 102.82 370.858 102.82C368.831 102.82 367.284 103.433 366.218 104.66C365.178 105.86 364.658 107.593 364.658 109.86ZM391.386 120.9C388.879 120.9 386.879 120.327 385.386 119.18C383.892 118.007 383.039 116.353 382.826 114.22H385.906C386.092 115.527 386.666 116.527 387.626 117.22C388.586 117.913 389.866 118.26 391.466 118.26C392.879 118.26 393.986 117.993 394.786 117.46C395.586 116.927 395.986 116.167 395.986 115.18C395.986 114.487 395.759 113.887 395.306 113.38C394.852 112.847 393.946 112.407 392.586 112.06L389.306 111.22C387.439 110.74 386.039 110.007 385.106 109.02C384.172 108.007 383.706 106.807 383.706 105.42C383.706 103.66 384.359 102.273 385.666 101.26C386.972 100.22 388.746 99.7 390.986 99.7C393.199 99.7 394.999 100.233 396.386 101.3C397.772 102.367 398.559 103.847 398.746 105.74H395.666C395.479 104.647 394.972 103.807 394.146 103.22C393.319 102.633 392.226 102.34 390.866 102.34C389.559 102.34 388.546 102.593 387.826 103.1C387.106 103.58 386.746 104.273 386.746 105.18C386.746 105.873 386.999 106.473 387.506 106.98C388.039 107.487 388.919 107.913 390.146 108.26L393.346 109.14C395.239 109.647 396.666 110.42 397.626 111.46C398.586 112.5 399.066 113.753 399.066 115.22C399.066 117.007 398.386 118.407 397.026 119.42C395.666 120.407 393.786 120.9 391.386 120.9ZM412.435 120.9C410.488 120.9 408.768 120.447 407.275 119.54C405.782 118.607 404.608 117.34 403.755 115.74C402.902 114.14 402.475 112.3 402.475 110.22C402.475 108.14 402.888 106.313 403.715 104.74C404.568 103.14 405.755 101.9 407.275 101.02C408.795 100.14 410.542 99.7 412.515 99.7C414.408 99.7 416.048 100.113 417.435 100.94C418.848 101.767 419.928 102.927 420.675 104.42C421.448 105.913 421.835 107.673 421.835 109.7C421.835 109.967 421.822 110.22 421.795 110.46C421.795 110.7 421.768 110.967 421.715 111.26H404.875V108.58H419.755L418.715 110.06C418.715 107.607 418.168 105.727 417.075 104.42C416.008 103.087 414.488 102.42 412.515 102.42C410.488 102.42 408.848 103.127 407.595 104.54C406.368 105.927 405.755 107.807 405.755 110.18C405.755 112.607 406.368 114.553 407.595 116.02C408.848 117.46 410.515 118.18 412.595 118.18C413.902 118.18 415.048 117.9 416.035 117.34C417.022 116.753 417.742 115.927 418.195 114.86H421.235C420.568 116.727 419.448 118.207 417.875 119.3C416.328 120.367 414.515 120.9 412.435 120.9ZM426.653 120.5V100.1H429.653V105.3H429.853V120.5H426.653ZM429.853 109.86L429.333 105.02C429.813 103.287 430.666 101.967 431.893 101.06C433.12 100.153 434.533 99.7 436.133 99.7C436.8 99.7 437.253 99.7533 437.493 99.86V102.94C437.36 102.887 437.173 102.86 436.933 102.86C436.693 102.833 436.4 102.82 436.053 102.82C434.026 102.82 432.48 103.433 431.413 104.66C430.373 105.86 429.853 107.593 429.853 109.86ZM447.613 120.5L439.173 100.1H442.613L449.653 118.34H448.373L455.373 100.1H458.653L450.213 120.5H447.613ZM462.317 120.5V100.1H465.517V120.5H462.317ZM462.077 95.46V91.7H465.757V95.46H462.077ZM479.928 120.9C478.062 120.9 476.395 120.447 474.928 119.54C473.488 118.607 472.342 117.34 471.488 115.74C470.662 114.113 470.248 112.273 470.248 110.22C470.248 108.167 470.662 106.353 471.488 104.78C472.342 103.207 473.488 101.967 474.928 101.06C476.395 100.153 478.048 99.7 479.888 99.7C481.408 99.7 482.768 99.9933 483.968 100.58C485.195 101.167 486.195 102.007 486.968 103.1C487.768 104.167 488.275 105.42 488.488 106.86H485.528C485.262 105.553 484.648 104.487 483.688 103.66C482.728 102.833 481.488 102.42 479.968 102.42C478.662 102.42 477.528 102.74 476.568 103.38C475.608 104.02 474.862 104.927 474.328 106.1C473.795 107.273 473.528 108.647 473.528 110.22C473.528 111.793 473.795 113.18 474.328 114.38C474.862 115.58 475.608 116.513 476.568 117.18C477.555 117.847 478.702 118.18 480.008 118.18C481.475 118.18 482.702 117.78 483.688 116.98C484.675 116.153 485.302 115.087 485.568 113.78H488.528C488.288 115.193 487.755 116.447 486.928 117.54C486.128 118.607 485.128 119.433 483.928 120.02C482.728 120.607 481.395 120.9 479.928 120.9ZM501.458 120.9C499.512 120.9 497.792 120.447 496.298 119.54C494.805 118.607 493.632 117.34 492.778 115.74C491.925 114.14 491.498 112.3 491.498 110.22C491.498 108.14 491.912 106.313 492.738 104.74C493.592 103.14 494.778 101.9 496.298 101.02C497.818 100.14 499.565 99.7 501.538 99.7C503.432 99.7 505.072 100.113 506.458 100.94C507.872 101.767 508.952 102.927 509.698 104.42C510.472 105.913 510.858 107.673 510.858 109.7C510.858 109.967 510.845 110.22 510.818 110.46C510.818 110.7 510.792 110.967 510.738 111.26H493.898V108.58H508.778L507.738 110.06C507.738 107.607 507.192 105.727 506.098 104.42C505.032 103.087 503.512 102.42 501.538 102.42C499.512 102.42 497.872 103.127 496.618 104.54C495.392 105.927 494.778 107.807 494.778 110.18C494.778 112.607 495.392 114.553 496.618 116.02C497.872 117.46 499.538 118.18 501.618 118.18C502.925 118.18 504.072 117.9 505.058 117.34C506.045 116.753 506.765 115.927 507.218 114.86H510.258C509.592 116.727 508.472 118.207 506.898 119.3C505.352 120.367 503.538 120.9 501.458 120.9ZM523.684 120.5V91.7H526.884V120.5H523.684ZM538.284 120.5V107.14C538.284 105.593 537.898 104.433 537.124 103.66C536.351 102.887 535.204 102.5 533.684 102.5C532.351 102.5 531.164 102.793 530.124 103.38C529.111 103.967 528.311 104.78 527.724 105.82C527.164 106.86 526.884 108.073 526.884 109.46L526.364 104.62C527.058 103.1 528.111 101.9 529.524 101.02C530.964 100.14 532.591 99.7 534.404 99.7C536.538 99.7 538.244 100.313 539.524 101.54C540.831 102.74 541.484 104.327 541.484 106.3V120.5H538.284ZM555.99 120.9C554.043 120.9 552.323 120.447 550.83 119.54C549.336 118.607 548.163 117.34 547.31 115.74C546.456 114.14 546.03 112.3 546.03 110.22C546.03 108.14 546.443 106.313 547.27 104.74C548.123 103.14 549.31 101.9 550.83 101.02C552.35 100.14 554.096 99.7 556.07 99.7C557.963 99.7 559.603 100.113 560.99 100.94C562.403 101.767 563.483 102.927 564.23 104.42C565.003 105.913 565.39 107.673 565.39 109.7C565.39 109.967 565.376 110.22 565.35 110.46C565.35 110.7 565.323 110.967 565.27 111.26H548.43V108.58H563.31L562.27 110.06C562.27 107.607 561.723 105.727 560.63 104.42C559.563 103.087 558.043 102.42 556.07 102.42C554.043 102.42 552.403 103.127 551.15 104.54C549.923 105.927 549.31 107.807 549.31 110.18C549.31 112.607 549.923 114.553 551.15 116.02C552.403 117.46 554.07 118.18 556.15 118.18C557.456 118.18 558.603 117.9 559.59 117.34C560.576 116.753 561.296 115.927 561.75 114.86H564.79C564.123 116.727 563.003 118.207 561.43 119.3C559.883 120.367 558.07 120.9 555.99 120.9ZM582.611 120.5C582.504 120.047 582.424 119.527 582.371 118.94C582.344 118.353 582.331 117.607 582.331 116.7H582.131V106.94C582.131 105.393 581.771 104.26 581.051 103.54C580.357 102.793 579.224 102.42 577.651 102.42C576.104 102.42 574.864 102.74 573.931 103.38C573.024 103.993 572.517 104.873 572.411 106.02H569.331C569.464 104.047 570.291 102.5 571.811 101.38C573.331 100.26 575.317 99.7 577.771 99.7C580.304 99.7 582.184 100.3 583.411 101.5C584.637 102.7 585.251 104.5 585.251 106.9V116.7C585.251 117.287 585.291 117.9 585.371 118.54C585.451 119.153 585.557 119.807 585.691 120.5H582.611ZM575.611 120.9C573.504 120.9 571.824 120.393 570.571 119.38C569.344 118.34 568.731 116.927 568.731 115.14C568.731 113.353 569.344 111.967 570.571 110.98C571.797 109.993 573.584 109.3 575.931 108.9L583.051 107.7V110.34L576.411 111.38C574.917 111.62 573.784 112.02 573.011 112.58C572.237 113.14 571.851 113.953 571.851 115.02C571.851 116.06 572.197 116.847 572.891 117.38C573.611 117.913 574.664 118.18 576.051 118.18C577.837 118.18 579.291 117.78 580.411 116.98C581.557 116.153 582.131 115.087 582.131 113.78L582.651 116.62C582.224 117.98 581.384 119.033 580.131 119.78C578.904 120.527 577.397 120.9 575.611 120.9ZM591.419 120.5V100.1H594.419V105.3H594.619V120.5H591.419ZM594.619 109.86L594.099 105.02C594.579 103.287 595.432 101.967 596.659 101.06C597.885 100.153 599.299 99.7 600.899 99.7C601.565 99.7 602.019 99.7533 602.259 99.86V102.94C602.125 102.887 601.939 102.86 601.699 102.86C601.459 102.833 601.165 102.82 600.819 102.82C598.792 102.82 597.245 103.433 596.179 104.66C595.139 105.86 594.619 107.593 594.619 109.86ZM615.048 120.86C612.781 120.86 611.128 120.353 610.088 119.34C609.074 118.3 608.568 116.807 608.568 114.86V95.34L611.768 94.14V114.82C611.768 115.967 612.061 116.807 612.648 117.34C613.234 117.873 614.194 118.14 615.528 118.14C616.061 118.14 616.514 118.113 616.888 118.06C617.288 117.98 617.608 117.887 617.848 117.78V120.5C617.581 120.607 617.194 120.687 616.688 120.74C616.208 120.82 615.661 120.86 615.048 120.86ZM604.368 102.82V100.1H617.848V102.82H604.368ZM632.046 120.86C630.126 120.86 628.512 120.393 627.206 119.46C625.899 118.527 625.006 117.207 624.526 115.5L624.966 115.42V120.5H621.966V91.7H625.166V104.86L624.726 104.74C625.232 103.167 626.152 101.94 627.486 101.06C628.846 100.153 630.459 99.7 632.326 99.7C634.139 99.7 635.712 100.14 637.046 101.02C638.406 101.9 639.459 103.127 640.206 104.7C640.952 106.273 641.326 108.113 641.326 110.22C641.326 112.353 640.939 114.22 640.166 115.82C639.392 117.42 638.312 118.66 636.926 119.54C635.539 120.42 633.912 120.86 632.046 120.86ZM631.566 118.06C633.592 118.06 635.179 117.367 636.326 115.98C637.472 114.567 638.046 112.647 638.046 110.22C638.046 107.82 637.472 105.94 636.326 104.58C635.179 103.193 633.592 102.5 631.566 102.5C629.539 102.5 627.939 103.207 626.766 104.62C625.592 106.007 625.006 107.913 625.006 110.34C625.006 112.713 625.592 114.593 626.766 115.98C627.939 117.367 629.539 118.06 631.566 118.06ZM654.583 120.9C652.637 120.9 650.917 120.447 649.423 119.54C647.93 118.607 646.757 117.34 645.903 115.74C645.05 114.14 644.623 112.3 644.623 110.22C644.623 108.14 645.037 106.313 645.863 104.74C646.717 103.14 647.903 101.9 649.423 101.02C650.943 100.14 652.69 99.7 654.663 99.7C656.557 99.7 658.197 100.113 659.583 100.94C660.997 101.767 662.077 102.927 662.823 104.42C663.597 105.913 663.983 107.673 663.983 109.7C663.983 109.967 663.97 110.22 663.943 110.46C663.943 110.7 663.917 110.967 663.863 111.26H647.023V108.58H661.903L660.863 110.06C660.863 107.607 660.317 105.727 659.223 104.42C658.157 103.087 656.637 102.42 654.663 102.42C652.637 102.42 650.997 103.127 649.743 104.54C648.517 105.927 647.903 107.807 647.903 110.18C647.903 112.607 648.517 114.553 649.743 116.02C650.997 117.46 652.663 118.18 654.743 118.18C656.05 118.18 657.197 117.9 658.183 117.34C659.17 116.753 659.89 115.927 660.343 114.86H663.383C662.717 116.727 661.597 118.207 660.023 119.3C658.477 120.367 656.663 120.9 654.583 120.9ZM681.204 120.5C681.098 120.047 681.018 119.527 680.964 118.94C680.938 118.353 680.924 117.607 680.924 116.7H680.724V106.94C680.724 105.393 680.364 104.26 679.644 103.54C678.951 102.793 677.818 102.42 676.244 102.42C674.698 102.42 673.458 102.74 672.524 103.38C671.618 103.993 671.111 104.873 671.004 106.02H667.924C668.058 104.047 668.884 102.5 670.404 101.38C671.924 100.26 673.911 99.7 676.364 99.7C678.898 99.7 680.778 100.3 682.004 101.5C683.231 102.7 683.844 104.5 683.844 106.9V116.7C683.844 117.287 683.884 117.9 683.964 118.54C684.044 119.153 684.151 119.807 684.284 120.5H681.204ZM674.204 120.9C672.098 120.9 670.418 120.393 669.164 119.38C667.938 118.34 667.324 116.927 667.324 115.14C667.324 113.353 667.938 111.967 669.164 110.98C670.391 109.993 672.178 109.3 674.524 108.9L681.644 107.7V110.34L675.004 111.38C673.511 111.62 672.378 112.02 671.604 112.58C670.831 113.14 670.444 113.953 670.444 115.02C670.444 116.06 670.791 116.847 671.484 117.38C672.204 117.913 673.258 118.18 674.644 118.18C676.431 118.18 677.884 117.78 679.004 116.98C680.151 116.153 680.724 115.087 680.724 113.78L681.244 116.62C680.818 117.98 679.978 119.033 678.724 119.78C677.498 120.527 675.991 120.9 674.204 120.9ZM697.626 120.86C695.359 120.86 693.706 120.353 692.666 119.34C691.652 118.3 691.146 116.807 691.146 114.86V95.34L694.346 94.14V114.82C694.346 115.967 694.639 116.807 695.226 117.34C695.812 117.873 696.772 118.14 698.106 118.14C698.639 118.14 699.092 118.113 699.466 118.06C699.866 117.98 700.186 117.887 700.426 117.78V120.5C700.159 120.607 699.772 120.687 699.266 120.74C698.786 120.82 698.239 120.86 697.626 120.86ZM686.946 102.82V100.1H700.426V102.82H686.946ZM711.386 120.9C708.879 120.9 706.879 120.327 705.386 119.18C703.892 118.007 703.039 116.353 702.826 114.22H705.906C706.092 115.527 706.666 116.527 707.626 117.22C708.586 117.913 709.866 118.26 711.466 118.26C712.879 118.26 713.986 117.993 714.786 117.46C715.586 116.927 715.986 116.167 715.986 115.18C715.986 114.487 715.759 113.887 715.306 113.38C714.852 112.847 713.946 112.407 712.586 112.06L709.306 111.22C707.439 110.74 706.039 110.007 705.106 109.02C704.172 108.007 703.706 106.807 703.706 105.42C703.706 103.66 704.359 102.273 705.666 101.26C706.972 100.22 708.746 99.7 710.986 99.7C713.199 99.7 714.999 100.233 716.386 101.3C717.772 102.367 718.559 103.847 718.746 105.74H715.666C715.479 104.647 714.972 103.807 714.146 103.22C713.319 102.633 712.226 102.34 710.866 102.34C709.559 102.34 708.546 102.593 707.826 103.1C707.106 103.58 706.746 104.273 706.746 105.18C706.746 105.873 706.999 106.473 707.506 106.98C708.039 107.487 708.919 107.913 710.146 108.26L713.346 109.14C715.239 109.647 716.666 110.42 717.626 111.46C718.586 112.5 719.066 113.753 719.066 115.22C719.066 117.007 718.386 118.407 717.026 119.42C715.666 120.407 713.786 120.9 711.386 120.9Z" fill="#969696"/>
<defs>
<clipPath id="clip0_30_12">
<rect width="134" height="134" fill="white"/>
</clipPath>
</defs>
</svg>
