<svg width="134" height="134" viewBox="0 0 134 134" fill="none" xmlns="http://www.w3.org/2000/svg">
<g clip-path="url(#clip0_32_2)">
<path d="M134 67C134 104.003 104.003 134 67 134C29.9969 134 0 104.003 0 67C0 29.9969 29.9969 0 67 0C104.003 0 134 29.9969 134 67Z" fill="#111827"/>
<path d="M107.75 66.5H97.52C95.7172 66.4961 93.9628 67.0829 92.5251 68.1705C91.0874 69.2581 90.0455 70.7867 89.5588 72.5225L79.865 107.007C79.8025 107.222 79.6723 107.41 79.4937 107.544C79.3152 107.678 79.0981 107.75 78.875 107.75C78.6519 107.75 78.4348 107.678 78.2563 107.544C78.0777 107.41 77.9475 107.222 77.885 107.007L55.115 25.9925C55.0525 25.7783 54.9223 25.5901 54.7437 25.4562C54.5652 25.3224 54.3481 25.25 54.125 25.25C53.9019 25.25 53.6848 25.3224 53.5063 25.4562C53.3277 25.5901 53.1975 25.7783 53.135 25.9925L43.4412 60.4775C42.9564 62.2065 41.9207 63.7301 40.4913 64.8171C39.0619 65.904 37.3169 66.4949 35.5212 66.5H25.25" stroke="white" stroke-width="4" stroke-linecap="round" stroke-linejoin="round"/>
</g>
<defs>
<clipPath id="clip0_32_2">
<rect width="134" height="134" fill="white"/>
</clipPath>
</defs>
</svg>
